<?xml version="1.0" standalone="no"?>
<!DOCTYPE svg PUBLIC "-//W3C//DTD SVG 20010904//EN"
 "http://www.w3.org/TR/2001/REC-SVG-20010904/DTD/svg10.dtd">
<svg version="1.0" xmlns="http://www.w3.org/2000/svg"
 width="375.000000pt" height="134.000000pt" viewBox="0 0 375.000000 134.000000"
 preserveAspectRatio="xMidYMid meet">

<g transform="translate(0.000000,134.000000) scale(0.100000,-0.100000)"
fill="#000000" stroke="none">
<path d="M2047 1330 c-99 -25 -151 -82 -151 -165 -1 -102 50 -142 256 -200 69
-18 94 -47 79 -88 -7 -18 -22 -30 -49 -38 -56 -16 -105 8 -127 63 -11 29 -20
38 -31 34 -9 -3 -47 -6 -85 -6 -49 0 -69 -4 -69 -12 0 -37 25 -94 57 -129 49
-54 115 -73 242 -67 145 6 214 52 241 159 31 125 -52 203 -265 249 -47 11 -85
33 -85 52 0 18 41 48 65 48 40 0 84 -27 91 -56 6 -25 9 -26 58 -20 28 3 68 6
88 6 l36 0 -10 38 c-25 92 -90 132 -222 138 -45 2 -98 -1 -119 -6z"/>
<path d="M50 1031 l0 -301 90 0 90 0 0 120 c0 119 0 120 23 120 38 0 56 -20
116 -130 l58 -105 107 -3 106 -3 -46 88 c-63 118 -80 140 -117 160 -22 11 -27
18 -17 21 52 16 83 39 107 79 21 37 25 53 21 99 -5 62 -28 99 -79 129 -31 18
-56 20 -246 23 l-213 4 0 -301z m321 168 c46 -24 39 -93 -10 -106 -14 -4 -48
-7 -76 -7 l-50 -1 -3 63 -3 62 61 0 c34 0 70 -5 81 -11z"/>
<path d="M158 606 c-96 -35 -131 -83 -125 -169 3 -47 9 -63 33 -88 39 -41 85
-64 178 -87 98 -26 126 -44 126 -82 0 -37 -32 -60 -83 -60 -49 0 -83 23 -98
67 l-11 35 -87 -7 c-47 -4 -87 -8 -88 -9 -1 -1 7 -25 16 -54 37 -107 107 -147
261 -147 54 0 111 6 133 13 82 30 137 105 137 189 0 95 -58 149 -200 188 -52
14 -106 31 -120 38 -52 26 -29 77 36 77 46 0 63 -9 80 -41 14 -28 16 -29 99
-29 98 0 101 4 63 80 -36 70 -88 94 -213 97 -67 2 -112 -1 -137 -11z"/>
<path d="M885 611 c-166 -41 -245 -231 -179 -434 22 -67 94 -139 159 -158 62
-18 197 -18 249 0 55 19 110 73 136 132 12 28 20 52 18 54 -6 6 -140 45 -153
45 -7 0 -16 -13 -20 -30 -9 -42 -58 -80 -103 -80 -90 1 -124 52 -120 180 4
100 26 143 83 159 59 16 128 -16 147 -69 2 -7 144 17 157 27 2 1 -4 21 -14 44
-25 54 -94 114 -150 128 -48 12 -163 13 -210 2z"/>
<path d="M2299 604 c-63 -19 -131 -81 -159 -146 -27 -62 -33 -194 -12 -265 19
-65 70 -124 137 -158 53 -27 67 -30 159 -30 120 1 184 23 242 87 l36 40 33
-40 c43 -49 113 -80 202 -88 134 -13 246 33 303 123 l30 47 0 -82 0 -82 240 0
240 0 0 75 0 75 -150 0 -150 0 0 225 0 225 -90 0 -90 0 0 -82 -1 -83 -19 36
c-23 44 -78 94 -128 115 -20 9 -76 18 -123 21 -117 8 -185 -14 -251 -77 l-48
-47 -48 48 c-34 34 -62 51 -101 63 -66 20 -189 20 -252 0z m190 -139 c40 -20
61 -71 61 -149 0 -120 -41 -176 -128 -176 -79 0 -122 60 -122 170 0 117 38
169 123 170 21 0 51 -7 66 -15z m556 -7 c38 -29 55 -76 55 -148 0 -107 -45
-170 -122 -170 -88 0 -128 52 -128 168 0 38 5 84 11 101 23 66 127 94 184 49z"/>
<path d="M1420 310 l0 -300 90 0 89 0 3 122 3 123 100 0 100 0 3 -123 3 -122
89 0 90 0 0 300 0 300 -90 0 -90 0 0 -105 0 -105 -105 0 -105 0 0 105 0 105
-90 0 -90 0 0 -300z"/>
</g>
</svg>
